<svg version="1.1" xmlns="http://www.w3.org/2000/svg" xmlns:xlink="http://www.w3.org/1999/xlink" preserveAspectRatio="xMidYMid meet" viewBox="355 204 393 122">
<defs>
  <style type="text/css">
    @font-face {
      font-family: Orbitron Black;
      src: url(../../../fonts/OrbitronBlack.ttf);
    }
	@font-face {
	  font-family: Chau Philomene One;
	  src: url(../../../fonts/ChauPhilomeneOne-Regular.ttf);
	  }
  </style>
</defs>
	<g data-item-type="text" data-item="Business" id="logo__item--business" class="logo__item">
		<g transform="translate(454.28125 273.62894212705146) scale(1 1) rotate(0 0 0)">
			<text data-part-id="logo__item--business" dy="0" dominant-baseline="auto" alignment-baseline="auto" font-family="Orbitron Black, Chau Philomene One" font-size="32px" fill="#EA2127" letter-spacing="0" font-weight="normal" font-style="normal" data-font-family="Orbitron Black, Chau Philomene One" data-font-weight="normal" data-font-style="normal" data-ttf-url="./Montserrat-Bold.otf">LUKE'S LUNCHBOX</text>
		</g>
	</g><g data-item-type="image" data-item="Image" id="logo__item--logo_0" class="logo__item">
	<g class="logo__item__inner" transform="translate(342.91922580753464 204) scale(0.8251561663066898 0.8251561663066898) rotate(0 0 0)">

		<g>
			<path fill="none" d="M88.005,58.69c-0.075,0.022-0.144,0.045-0.219,0.063c0.051,0.055,0.103,0.114,0.154,0.173   C87.959,58.872,87.978,58.795,88.005,58.69z" data-part-id="logo__item--logo_0__0"></path>
			<path fill="#EA2127" d="M65.636,95.939c2.399-0.978,4.37-2.975,5.223-5.637c1.533-4.768-1.101-9.884-5.871-11.418   c-0.628-0.204-1.271-0.328-1.909-0.396c4.188,2.134,6.051,8.099,4.158,13.985C66.832,93.733,66.288,94.903,65.636,95.939z" data-part-id="logo__item--logo_0__1"></path>
			<path fill="#EC2B7B" d="M37.586,75.655c-0.646,0.61-1.219,1.282-1.704,1.993c5.255-3.576,13.527-1.893,19.287,4.185   c1.228,1.306,2.25,2.708,3.06,4.158c0.404-3.485-0.68-7.115-3.276-9.863C50.291,71.201,42.516,70.987,37.586,75.655z" data-part-id="logo__item--logo_0__2"></path>
			<path fill="#47B549" d="M38.533,86.577c2.343-0.567,4.672-0.823,6.913-0.796c-3.806-2.808-8.783-3.981-13.739-2.778   c-8.882,2.151-14.346,11.1-12.194,19.983c0.285,1.184,0.685,2.293,1.192,3.345C20.051,97.788,27.567,89.233,38.533,86.577z" data-part-id="logo__item--logo_0__3"></path>
			<path fill="#00A899" d="M31.063,103.96c1.103-2.646,2.5-5.062,4.108-7.197c-5.377,1.675-10.002,5.624-12.344,11.225   c-4.2,10.05,0.548,21.59,10.588,25.79c1.326,0.545,2.686,0.951,4.046,1.2C28.802,129.591,25.886,116.353,31.063,103.96z" data-part-id="logo__item--logo_0__4"></path>
			<path fill="#26A8E0" d="M40.451,121.258c-1.518-3.112-2.589-6.293-3.242-9.444c-2.768,6.195-2.875,13.524,0.326,20.103   c5.748,11.792,19.971,16.696,31.766,10.945c1.562-0.758,2.996-1.673,4.314-2.706C61.844,143.704,47.541,135.811,40.451,121.258z" data-part-id="logo__item--logo_0__5"></path>
			<path fill="#124B9C" d="M60.97,126.672c-3.928-0.987-7.584-2.427-10.902-4.218c3.467,7.146,9.947,12.773,18.247,14.866   c14.885,3.74,30-5.281,33.748-20.171c0.497-1.965,0.773-3.948,0.834-5.896C97.194,124.465,79.338,131.298,60.97,126.672z" data-part-id="logo__item--logo_0__6"></path>
			<path fill="#852A8E" d="M100.164,66.36c6.714,15.059-1.373,35.412-19.532,47.304c-3.88,2.544-7.934,4.509-12.01,5.915   c8.708,2.63,18.479,1.532,26.676-3.844c14.709-9.637,18.825-29.385,9.188-44.094C103.211,69.7,101.753,67.935,100.164,66.36z" data-part-id="logo__item--logo_0__7"></path>
			<path fill="#1C75BB" d="M42.077,44.223c5.925,1.792,11.958-0.564,15.465-6.205c5.163,2.502,9.924,5.641,14.18,9.294   c9.658,10.036,15.832,26.787,12.513,42.485c-0.961,4.522-2.441,8.768-4.34,12.631c8.016-4.264,15.331-11.739,16.178-21.488   c0.582-6.805-0.4-11.082-0.811-16.149c-0.938-6.465-0.941-16.901,2.423-23.762c3.996,0.519,7.235-1.583,9.325-4.936   c0.01,0.004,0.01,0.004,0.01,0.004c0.014-0.023,0.023-0.045,0.038-0.068c0-0.009,0.01-0.023,0.015-0.037v-0.004   c2.948-8.107,13.011-17.85,13.085-18.391c-0.446-0.93-11.187,8.328-15.379,16.33c-0.466-0.418-0.928-0.833-1.391-1.26   c3.818-8.926,15.292-19.014,15.363-19.512c-0.444-0.969-12.589,8.635-17.648,17.456c-0.461-0.414-0.93-0.841-1.387-1.255   c4.672-9.754,17.563-20.195,17.617-20.645c-0.427-1.012-13.989,8.935-19.92,18.575c-0.466-0.423-0.935-0.846-1.4-1.27   c5.557-10.57,19.858-21.354,19.906-21.768c-0.425-1.062-15.397,9.237-22.198,19.699h-0.006l-0.004,0.009   c-0.032,0.045-0.061,0.086-0.094,0.127l0.01,0.009c-3.396,5.705-3.275,12.283,0.307,15.277c-0.428,1.001-0.823,2.015-1.21,3.043   c-2.186,5.569-3.83,12.575-4.49,15.359c-7.854-10.2-18.188-17.984-29.703-22.633c1.37-6.601-5.875-14.904-16.455-15.852   c-11.321-1.515-24.881,5.425-21.685,12.272C24.016,37.914,35.956,41.958,42.077,44.223z M88.005,58.69   c-0.027,0.104-0.046,0.182-0.064,0.236c-0.052-0.059-0.104-0.118-0.154-0.173C87.861,58.735,87.93,58.713,88.005,58.69z" data-part-id="logo__item--logo_0__8"></path>
			<path fill="#47B549" d="M104.755,44.814c-4.561,1.074-7.631,5.164-7.462,9.672c2.804-2.606,6.53-4.635,10.854-5.595   c4.846-1.079,9.576-0.646,13.492,0.919c-0.29-0.1-0.587-0.178-0.886-0.26c-0.025-0.004-0.052-0.018-0.08-0.027   c-0.042-0.014-0.078-0.023-0.114-0.032c-0.147-0.041-0.286-0.082-0.431-0.114l-0.004-0.004c-0.02-0.004-0.036-0.004-0.036-0.004   c-0.534-0.136-1.06-0.246-1.596-0.336c-0.106-0.019-0.205-0.041-0.312-0.055c-0.12-0.023-0.249-0.027-0.377-0.045   c-0.381-0.055-0.769-0.096-1.16-0.128c-0.14-0.013-0.274-0.036-0.418-0.054c-0.084,0-0.164,0-0.244,0   c-0.773-0.045-1.561-0.05-2.356-0.014c-0.036,0-0.071,0-0.107,0c-0.031,0-0.061,0.005-0.093,0.014   c-0.475,0.022-0.951,0.059-1.426,0.104c-0.21,0.027-0.409,0.046-0.619,0.073c-0.05,0.005-0.098,0.014-0.143,0.023   c-0.212,0.032-0.417,0.059-0.625,0.095c-0.446,0.069-0.896,0.155-1.348,0.25c-0.623,0.142-1.239,0.305-1.835,0.487   c-0.01,0.004-0.02,0.004-0.02,0.004c-0.245,0.077-0.471,0.164-0.697,0.236c-0.054,0.019-0.103,0.037-0.15,0.05   c-0.881,0.305-1.727,0.642-2.543,1.033c-0.019,0.009-0.037,0.014-0.06,0.023c-0.159,0.082-0.313,0.168-0.472,0.25   c-0.442,0.223-0.874,0.459-1.3,0.71c-0.255,0.145-0.512,0.3-0.758,0.459l-0.029,0.023c-0.125,0.082-0.251,0.164-0.379,0.246   c-0.017,0.018-0.03,0.027-0.049,0.036c-0.342,0.237-0.681,0.478-1.013,0.723c-0.022,0.019-0.049,0.045-0.078,0.064   c-0.041,0.032-0.083,0.068-0.126,0.1c-0.032,0.023-0.064,0.05-0.099,0.082c-0.348,0.278-0.693,0.564-1.023,0.86   c-0.009,0.014-0.022,0.023-0.038,0.036c-0.014,0.014-0.027,0.028-0.042,0.041c-0.022,0.028-0.056,0.055-0.079,0.078   c-0.358,0.332-0.702,0.66-1.023,1.01c0.022,0.123,0.032,0.241,0.055,0.364c0.014,0.063,0.036,0.132,0.058,0.195   c0.059,0.259,0.129,0.555,0.203,0.737v0.004c0.023,0.068,0.051,0.132,0.08,0.205c0.077,0.228,0.162,0.446,0.256,0.665   c0.048,0.104,0.102,0.205,0.154,0.304c0.084,0.178,0.168,0.351,0.261,0.515c0.064,0.113,0.13,0.218,0.196,0.323   c0.094,0.154,0.185,0.309,0.294,0.45c0.067,0.109,0.152,0.214,0.231,0.318c0.102,0.132,0.205,0.264,0.316,0.396   c0.089,0.109,0.182,0.205,0.275,0.31c0.111,0.114,0.218,0.232,0.329,0.346c0.105,0.1,0.212,0.2,0.314,0.287   c0.115,0.109,0.231,0.209,0.353,0.309c0.118,0.091,0.234,0.173,0.345,0.264c0.121,0.086,0.242,0.177,0.369,0.259   c0.125,0.082,0.246,0.164,0.378,0.237c0.124,0.082,0.25,0.15,0.382,0.223c0.129,0.073,0.265,0.136,0.399,0.205   c0.13,0.063,0.261,0.118,0.392,0.182c0.145,0.059,0.289,0.118,0.433,0.173c0.13,0.05,0.267,0.091,0.396,0.132   c0.154,0.05,0.304,0.096,0.458,0.141c0.134,0.032,0.271,0.06,0.409,0.091c0.154,0.037,0.307,0.073,0.466,0.096   c0.14,0.023,0.28,0.036,0.419,0.054c0.163,0.019,0.318,0.041,0.476,0.051c0.15,0.009,0.298,0.009,0.452,0.009   c0.152,0.009,0.303,0.014,0.462,0.009c0.171-0.009,0.339-0.028,0.517-0.041c0.13-0.014,0.266-0.018,0.405-0.037   c0.307-0.036,0.613-0.091,0.924-0.168c6.898-1.633,10.717-13.461,17.096-11.519C126.003,51.935,117.669,41.78,104.755,44.814z" data-part-id="logo__item--logo_0__9"></path>
			<path fill="#47B549" d="M72.867,41.635c-0.621-2.184-0.68-4.686-0.019-7.224c0.735-2.843,2.241-5.213,4.123-6.856   c-0.13,0.127-0.25,0.259-0.379,0.396c-0.008,0.009-0.021,0.023-0.031,0.032c0,0-0.031,0.041-0.053,0.059   c-0.055,0.064-0.115,0.123-0.175,0.191v0.005c-0.011,0.004-0.016,0.013-0.016,0.013c-0.214,0.246-0.41,0.492-0.61,0.755   c-0.032,0.045-0.075,0.091-0.111,0.141c-0.041,0.064-0.08,0.128-0.121,0.187c-0.132,0.191-0.261,0.377-0.382,0.578   c-0.048,0.073-0.093,0.136-0.141,0.209c-0.023,0.045-0.046,0.086-0.068,0.127c-0.23,0.396-0.448,0.81-0.644,1.233   c0,0-0.013,0.046-0.022,0.064c-0.009,0.014-0.014,0.032-0.022,0.05c-0.118,0.25-0.226,0.519-0.328,0.778   c-0.041,0.118-0.083,0.227-0.129,0.35c-0.009,0.023-0.013,0.055-0.027,0.078c-0.039,0.118-0.08,0.232-0.118,0.354   c-0.084,0.25-0.157,0.51-0.228,0.778c-0.098,0.364-0.177,0.732-0.244,1.097c0,0.009,0,0.013,0,0.013   c-0.022,0.146-0.045,0.287-0.063,0.433c-0.005,0.027-0.009,0.054-0.014,0.086c-0.075,0.546-0.132,1.083-0.146,1.62v0.036   c-0.004,0.105,0,0.209,0,0.318c0,0.292,0.009,0.587,0.023,0.874c0.016,0.177,0.025,0.355,0.043,0.528c0,0,0.004,0.014,0.004,0.018   c0.005,0.086,0.014,0.177,0.028,0.264v0.032c0.034,0.25,0.07,0.491,0.111,0.732c0.004,0.018,0.004,0.036,0.013,0.055   c0.007,0.036,0.012,0.068,0.017,0.1c0.009,0.022,0.009,0.045,0.013,0.068c0.055,0.264,0.116,0.523,0.182,0.773   c0.004,0.005,0.004,0.018,0.004,0.018c0.005,0.028,0.009,0.037,0.009,0.051c0.009,0.018,0.018,0.036,0.018,0.036   c0.08,0.296,0.164,0.573,0.262,0.833c0.068,0.018,0.134,0.05,0.205,0.068c0.041,0.013,0.08,0.018,0.116,0.027   c0.154,0.041,0.33,0.077,0.448,0.086c0.041,0.009,0.082,0.009,0.13,0.019c0.139,0.018,0.28,0.031,0.418,0.041   c0.066,0.004,0.136,0,0.2,0.004c0.111,0,0.229,0.004,0.346,0c0.07-0.004,0.143-0.014,0.218-0.018   c0.107-0.009,0.214-0.014,0.316-0.027c0.08-0.014,0.155-0.028,0.234-0.041c0.098-0.018,0.195-0.032,0.294-0.055   c0.079-0.018,0.157-0.045,0.231-0.064c0.094-0.031,0.183-0.054,0.275-0.086c0.08-0.023,0.16-0.05,0.239-0.086   c0.082-0.032,0.171-0.064,0.25-0.101c0.085-0.031,0.159-0.072,0.239-0.113c0.077-0.037,0.156-0.078,0.232-0.119   c0.079-0.05,0.152-0.091,0.227-0.136c0.075-0.046,0.146-0.091,0.216-0.141c0.077-0.05,0.148-0.1,0.224-0.159   c0.063-0.05,0.129-0.1,0.2-0.155c0.065-0.064,0.139-0.118,0.204-0.182c0.062-0.055,0.12-0.114,0.178-0.173   c0.068-0.063,0.129-0.132,0.191-0.2c0.059-0.068,0.111-0.132,0.161-0.191c0.066-0.077,0.123-0.146,0.177-0.218   s0.099-0.141,0.147-0.209c0.049-0.082,0.101-0.154,0.156-0.241c0.043-0.073,0.079-0.15,0.122-0.227   c0.045-0.082,0.089-0.164,0.13-0.246c0.041-0.086,0.079-0.187,0.116-0.277c0.027-0.078,0.062-0.151,0.093-0.228   c0.062-0.173,0.112-0.346,0.16-0.528c1-4.071-4.197-9.28-1.454-12.115c0,0-7.597,1.656-9.48,9.271   C69.121,37.791,70.449,40.506,72.867,41.635z" data-part-id="logo__item--logo_0__10"></path>
			<path fill="#47B549" d="M82.623,66.998c0.284,0.964,0.418,1.942,0.463,2.925c0-4.864-2.454-9.312-6.375-11.997   c-1.067-0.615-2.231-1.101-3.453-1.502c0,0,0-0.013-0.004-0.018c-4.104-1.333-8.958-1.465-13.83-0.036   c-0.435,0.127-0.853,0.268-1.269,0.418c-0.25,0.086-0.499,0.178-0.744,0.273c-0.023,0.009-0.048,0.014-0.066,0.023   c-0.209,0.077-0.409,0.173-0.614,0.25l-0.018,0.005c-0.452,0.191-0.896,0.396-1.329,0.614c-0.009,0.004-0.027,0.009-0.036,0.014   c0,0-0.039,0.018-0.052,0.027c-0.75,0.368-1.472,0.769-2.161,1.201c-0.075,0.041-0.15,0.077-0.216,0.127   c-0.571,0.364-1.122,0.751-1.647,1.165c-0.114,0.082-0.216,0.173-0.323,0.264c-0.391,0.314-0.774,0.637-1.138,0.974   c-0.022,0.023-0.05,0.045-0.077,0.068c-0.004,0.004-0.009,0.004-0.014,0.009c-0.075,0.077-0.155,0.154-0.234,0.232   c-0.055,0.054-0.116,0.109-0.177,0.164c-0.055,0.059-0.103,0.114-0.153,0.168c-0.195,0.191-0.391,0.377-0.573,0.573   c2.739-3.335,6.765-6.064,11.646-7.484c4.347-1.278,8.687-1.306,12.483-0.35c-2.072-4.122-6.847-6.274-11.459-4.986   c-12.638,3.53-15.35,15.996-15.518,16.828c-0.004,0.028-0.009,0.05-0.009,0.05c4.752-4.891,14.019,3.826,21.016,1.883   c0.316-0.09,0.619-0.19,0.917-0.309c0.102-0.037,0.195-0.087,0.293-0.127c0.195-0.087,0.387-0.169,0.573-0.264   c0.116-0.059,0.225-0.123,0.332-0.187c0.162-0.087,0.326-0.182,0.48-0.282c0.116-0.072,0.223-0.154,0.334-0.228   c0.134-0.104,0.279-0.2,0.418-0.309c0.109-0.086,0.211-0.182,0.318-0.269c0.125-0.113,0.25-0.218,0.373-0.336   c0.103-0.1,0.205-0.2,0.298-0.31c0.111-0.113,0.223-0.236,0.33-0.351c0.088-0.113,0.182-0.231,0.271-0.341   c0.098-0.126,0.191-0.254,0.285-0.377c0.088-0.128,0.166-0.246,0.246-0.374c0.084-0.132,0.164-0.259,0.239-0.391   c0.08-0.137,0.152-0.264,0.223-0.401c0.066-0.136,0.13-0.268,0.191-0.4c0.065-0.146,0.134-0.292,0.191-0.437   c0.05-0.132,0.103-0.268,0.15-0.405c0.055-0.15,0.107-0.305,0.152-0.459c0.037-0.137,0.076-0.269,0.107-0.4   c0.043-0.164,0.084-0.333,0.111-0.5c0.035-0.123,0.048-0.255,0.066-0.382c0.032-0.173,0.057-0.351,0.075-0.528   c0.013-0.123,0.013-0.245,0.022-0.364c0.014-0.191,0.028-0.377,0.032-0.568c0-0.109-0.009-0.209-0.014-0.314   c-0.004-0.209-0.004-0.418-0.027-0.624c-0.004-0.05-0.013-0.1-0.018-0.15c-0.029-0.259-0.057-0.514-0.102-0.773   C78.006,59.473,81.365,62.698,82.623,66.998z" data-part-id="logo__item--logo_0__11"></path>
		</g>

	</g>
</g><g data-item-type="text" id="logo__item--tagline_1" data-item="Tagline" class="logo__item">
	<g class="logo__item__inner" transform="translate(562 296) scale(1 1) rotate(0 0 0)">
		<text dy="0" dominant-baseline="auto" alignment-baseline="auto" font-family="Orbitron Black, Chau Philomene One" font-size="18px" fill="#000000" letter-spacing="1" data-font-family="Orbitron Black, Chau Philomene One" data-font-weight="normal" data-font-style="normal" font-weight="normal" font-style="normal" data-ttf-url="/builder_assets/fontsttf/font-open-sans-normal-normal.ttf" data-part-id="logo__item--tagline_1__0" data-font-filename="indie-flower-normal-normal">Experience Dagobah</text>
	</g>
</g></svg>